<svg width="787" height="252" viewBox="0 0 787 252" fill="none" xmlns="http://www.w3.org/2000/svg">
<path d="M38.2 210.4C30.3333 210.4 23.5333 209.133 17.8 206.6C12.0667 204.067 7.66667 200.467 4.6 195.8C1.53333 191 0 185.333 0 178.8C0 172.667 1.4 167.267 4.2 162.6C7 157.8 11.2667 153.8 17 150.6C22.8667 147.4 30.1333 145.133 38.8 143.8L72.2 138.4V160.4L44.2 165.4C39.9333 166.2 36.6667 167.6 34.4 169.6C32.1333 171.467 31 174.2 31 177.8C31 181.133 32.2667 183.733 34.8 185.6C37.3333 187.467 40.4667 188.4 44.2 188.4C49.1333 188.4 53.4667 187.333 57.2 185.2C60.9333 183.067 63.8 180.2 65.8 176.6C67.9333 172.867 69 168.8 69 164.4V136C69 131.867 67.3333 128.4 64 125.6C60.8 122.8 56.4 121.4 50.8 121.4C45.4667 121.4 40.7333 122.867 36.6 125.8C32.6 128.733 29.6667 132.6 27.8 137.4L3.8 126C5.93333 119.867 9.33333 114.6 14 110.2C18.6667 105.8 24.2667 102.4 30.8 100C37.3333 97.6 44.4667 96.4 52.2 96.4C61.4 96.4 69.5333 98.0667 76.6 101.4C83.6667 104.733 89.1333 109.4 93 115.4C97 121.267 99 128.133 99 136V208H71V190.4L77.8 189.2C74.6 194 71.0667 198 67.2 201.2C63.3333 204.267 59 206.533 54.2 208C49.4 209.6 44.0667 210.4 38.2 210.4Z" fill="#EB5020"/>
<path d="M339.889 210.4C331.089 210.4 323.556 208.533 317.289 204.8C311.156 200.933 306.489 195.6 303.289 188.8C300.089 182 298.489 174.067 298.489 165V98.8H328.489V162.6C328.489 166.733 329.289 170.4 330.889 173.6C332.622 176.667 335.022 179.067 338.089 180.8C341.156 182.533 344.622 183.4 348.489 183.4C352.489 183.4 355.956 182.533 358.889 180.8C361.956 179.067 364.289 176.667 365.889 173.6C367.622 170.4 368.489 166.733 368.489 162.6V98.8H398.489V208H370.489V186.4L372.089 191.2C369.556 197.733 365.422 202.6 359.689 205.8C354.089 208.867 347.489 210.4 339.889 210.4Z" fill="#EB5020"/>
<path d="M474.016 252C465.616 252 457.816 250.6 450.616 247.8C443.416 245 437.216 241.067 432.016 236C426.949 231.067 423.282 225.2 421.016 218.4L448.816 208.6C450.282 213.667 453.282 217.667 457.816 220.6C462.349 223.533 467.749 225 474.016 225C478.949 225 483.216 224.067 486.816 222.2C490.416 220.467 493.149 217.867 495.016 214.4C497.016 210.933 498.016 206.867 498.016 202.2V177.2L503.816 184.4C500.082 190.533 495.282 195.133 489.416 198.2C483.549 201.133 476.682 202.6 468.816 202.6C458.682 202.6 449.616 200.333 441.616 195.8C433.616 191.133 427.349 184.8 422.816 176.8C418.282 168.667 416.016 159.467 416.016 149.2C416.016 138.933 418.282 129.867 422.816 122C427.349 114 433.549 107.733 441.416 103.2C449.282 98.6667 458.216 96.4 468.216 96.4C476.082 96.4 482.949 98 488.816 101.2C494.682 104.267 499.682 109 503.816 115.4L500.016 122.6V98.8H528.016V202.2C528.016 211.8 525.682 220.333 521.016 227.8C516.349 235.4 509.949 241.333 501.816 245.6C493.816 249.867 484.549 252 474.016 252ZM473.016 175.4C478.082 175.4 482.482 174.333 486.216 172.2C489.949 170.067 492.816 167.067 494.816 163.2C496.949 159.333 498.016 154.8 498.016 149.6C498.016 144.4 496.949 139.867 494.816 136C492.682 132 489.749 128.933 486.016 126.8C482.282 124.533 477.949 123.4 473.016 123.4C467.949 123.4 463.416 124.533 459.416 126.8C455.549 128.933 452.482 132 450.216 136C448.082 139.867 447.016 144.4 447.016 149.6C447.016 154.667 448.082 159.133 450.216 163C452.482 166.867 455.549 169.933 459.416 172.2C463.416 174.333 467.949 175.4 473.016 175.4Z" fill="#EB5020"/>
<path d="M603.703 252C595.303 252 587.503 250.6 580.303 247.8C573.103 245 566.903 241.067 561.703 236C556.636 231.067 552.97 225.2 550.703 218.4L578.503 208.6C579.97 213.667 582.97 217.667 587.503 220.6C592.036 223.533 597.436 225 603.703 225C608.636 225 612.903 224.067 616.503 222.2C620.103 220.467 622.836 217.867 624.703 214.4C626.703 210.933 627.703 206.867 627.703 202.2V177.2L633.503 184.4C629.77 190.533 624.97 195.133 619.103 198.2C613.237 201.133 606.37 202.6 598.503 202.6C588.37 202.6 579.303 200.333 571.303 195.8C563.303 191.133 557.036 184.8 552.503 176.8C547.97 168.667 545.703 159.467 545.703 149.2C545.703 138.933 547.97 129.867 552.503 122C557.036 114 563.237 107.733 571.103 103.2C578.97 98.6667 587.903 96.4 597.903 96.4C605.77 96.4 612.636 98 618.503 101.2C624.37 104.267 629.37 109 633.503 115.4L629.703 122.6V98.8H657.703V202.2C657.703 211.8 655.37 220.333 650.703 227.8C646.036 235.4 639.636 241.333 631.503 245.6C623.503 249.867 614.236 252 603.703 252ZM602.703 175.4C607.77 175.4 612.17 174.333 615.903 172.2C619.636 170.067 622.503 167.067 624.503 163.2C626.636 159.333 627.703 154.8 627.703 149.6C627.703 144.4 626.636 139.867 624.503 136C622.37 132 619.436 128.933 615.703 126.8C611.97 124.533 607.636 123.4 602.703 123.4C597.636 123.4 593.103 124.533 589.103 126.8C585.237 128.933 582.17 132 579.903 136C577.77 139.867 576.703 144.4 576.703 149.6C576.703 154.667 577.77 159.133 579.903 163C582.17 166.867 585.237 169.933 589.103 172.2C593.103 174.333 597.636 175.4 602.703 175.4Z" fill="#EB5020"/>
<path d="M696.791 252C693.591 252 690.457 251.733 687.391 251.2C684.457 250.667 681.857 249.8 679.591 248.6V224C681.457 224.533 683.657 225 686.191 225.4C688.724 225.8 691.057 226 693.191 226C699.057 226 703.257 224.6 705.791 221.8C708.324 219.133 710.391 216.067 711.991 212.6L719.391 195.6L718.991 220.6L670.991 98.8H703.191L734.991 185.4H722.991L754.791 98.8H786.991L740.191 218.2C737.257 225.667 733.657 231.933 729.391 237C725.124 242.067 720.257 245.8 714.791 248.2C709.457 250.733 703.457 252 696.791 252Z" fill="#EB5020"/>
<path d="M236.229 113.238L280.4 149.224H200.22V113.238H236.229Z" fill="#EB5020"/>
<path d="M272.238 214H245.831V180.413H226.626V214H200.22V154.022H272.238V214Z" fill="#EB5020"/>
<path fill-rule="evenodd" clip-rule="evenodd" d="M195.418 214H169.012V180.413H149.807V214H123.4V8.9882L195.418 0V214ZM132.042 161.22H151.247V142.027H132.042V161.22ZM167.571 161.22H186.776V142.027H167.571V161.22ZM132.042 122.834H151.247V103.641H132.042V122.834ZM167.571 122.834H186.776V103.641H167.571V122.834ZM132.042 84.4484H151.247V65.2556H132.042V84.4484ZM167.571 84.4484H186.776V65.2556H167.571V84.4484ZM132.042 46.0628H151.247V26.87H132.042V46.0628ZM167.571 26.87V46.0628H186.776V26.87H167.571Z" fill="#EB5020"/>
</svg>
